<?xml version="1.0" standalone="no"?>
<!DOCTYPE svg PUBLIC "-//W3C//DTD SVG 20010904//EN"
 "http://www.w3.org/TR/2001/REC-SVG-20010904/DTD/svg10.dtd">
<svg version="1.0" xmlns="http://www.w3.org/2000/svg"
 width="1040.000000pt" height="1040.000000pt" viewBox="0 0 1040.000000 1040.000000"
 preserveAspectRatio="xMidYMid meet">
<metadata>
Created by potrace 1.11, written by Peter Selinger 2001-2013
</metadata>
<g transform="translate(0.000000,1040.000000) scale(0.100000,-0.100000)"
fill="#000000" stroke="none">
<path d="M5008 9564 c-2 -1 -23 -5 -48 -7 -25 -3 -45 -6 -45 -7 0 -1 -13 -3
-30 -5 -57 -5 -110 -17 -121 -26 -6 -5 -14 -6 -17 -3 -5 6 -191 -42 -212 -55
-5 -3 -12 -6 -15 -6 -16 -2 -87 -29 -97 -38 -7 -5 -13 -7 -13 -4 0 3 -30 -9
-67 -27 -38 -18 -78 -37 -90 -40 -13 -4 -23 -12 -23 -17 0 -5 -8 -9 -19 -9
-10 0 -24 -6 -30 -13 -6 -8 -29 -22 -51 -32 -22 -10 -40 -22 -40 -27 0 -4 -6
-8 -13 -8 -8 0 -22 -9 -32 -20 -10 -11 -24 -20 -31 -20 -7 0 -18 -8 -23 -17
-6 -10 -11 -15 -11 -11 0 8 -5 4 -114 -86 -70 -59 -276 -264 -276 -276 0 -4
-14 -22 -31 -41 -29 -33 -129 -175 -129 -184 0 -2 -18 -32 -40 -66 -21 -33
-42 -71 -46 -82 -3 -12 -13 -30 -22 -39 -8 -10 -12 -18 -8 -18 4 0 1 -10 -6
-22 -7 -13 -13 -25 -14 -28 -1 -7 -33 -80 -44 -105 -23 -48 -83 -262 -96 -340
-3 -20 -8 -47 -10 -59 -35 -159 -35 -493 1 -691 2 -16 7 -41 9 -55 3 -14 5
-25 6 -25 1 0 3 -8 5 -19 2 -10 9 -41 16 -70 7 -28 14 -53 14 -56 3 -17 38
-118 46 -132 5 -10 9 -22 9 -28 0 -14 45 -114 97 -215 26 -49 51 -100 57 -112
6 -13 14 -23 19 -23 4 0 7 -5 7 -10 0 -12 41 -73 53 -78 4 -2 7 -8 7 -13 0
-11 105 -147 126 -165 8 -6 14 -14 14 -18 0 -9 166 -173 219 -216 23 -19 53
-44 66 -55 13 -11 40 -31 60 -45 20 -14 42 -30 49 -36 6 -6 27 -19 46 -29 19
-10 40 -24 48 -31 7 -8 19 -14 27 -14 7 0 15 -3 17 -7 2 -5 33 -24 71 -43 96
-50 122 -79 122 -139 -1 -40 -7 -55 -33 -85 -18 -20 -32 -34 -32 -30 0 3 -7 1
-15 -6 -22 -18 -64 -19 -103 -4 -18 8 -80 60 -136 116 -117 117 -185 178 -196
178 -5 0 -10 3 -12 8 -5 11 -116 92 -127 92 -5 0 -11 4 -13 8 -8 20 -288 170
-368 197 -3 1 -14 5 -25 9 -33 13 -49 19 -60 22 -111 35 -208 63 -231 67 -16
3 -54 11 -84 17 -63 13 -121 20 -202 24 -31 2 -60 6 -65 8 -17 9 -315 -4 -393
-17 -19 -4 -48 -9 -65 -11 -42 -7 -66 -12 -95 -18 -14 -4 -38 -9 -55 -12 -16
-2 -82 -23 -145 -45 -63 -22 -119 -41 -125 -42 -44 -12 -238 -110 -334 -170
-88 -55 -201 -139 -201 -149 0 -4 -6 -8 -13 -8 -16 0 -230 -208 -272 -265 -17
-22 -40 -50 -52 -62 -12 -12 -30 -36 -39 -53 -10 -16 -22 -30 -26 -30 -4 0 -8
-5 -8 -10 0 -6 -15 -32 -34 -58 -29 -42 -81 -133 -122 -212 -32 -63 -82 -189
-77 -194 4 -3 1 -6 -5 -6 -7 0 -11 -3 -10 -7 2 -5 -5 -28 -14 -53 -31 -87 -49
-151 -43 -160 3 -5 1 -11 -4 -14 -5 -3 -12 -27 -16 -53 -5 -27 -9 -52 -11 -58
-5 -25 -17 -104 -19 -140 -2 -22 -4 -40 -5 -40 -1 0 -3 -32 -4 -72 -1 -40 -5
-75 -8 -78 -3 -4 -3 -19 2 -34 4 -15 3 -35 -2 -44 -5 -10 -5 -17 -1 -17 4 0 8
-30 9 -68 1 -37 4 -92 8 -122 4 -30 9 -68 11 -85 2 -16 6 -41 9 -55 3 -14 8
-36 11 -50 11 -52 15 -67 30 -125 36 -131 118 -340 157 -396 9 -14 15 -28 12
-31 -2 -3 2 -11 11 -18 8 -7 15 -17 15 -21 0 -12 82 -143 92 -147 4 -2 8 -10
8 -17 0 -7 3 -15 8 -17 4 -1 34 -39 67 -83 93 -123 271 -297 396 -387 24 -17
45 -35 47 -40 2 -4 8 -8 14 -8 5 0 28 -13 51 -29 132 -90 390 -211 527 -247 8
-2 33 -8 55 -14 22 -6 49 -13 60 -15 11 -3 31 -7 45 -11 14 -3 34 -7 45 -9 11
-2 36 -6 55 -10 168 -32 377 -36 625 -11 38 4 171 29 215 41 260 69 463 158
659 290 40 28 81 55 89 60 9 6 21 15 28 20 6 6 36 30 65 54 80 66 299 291 299
307 0 4 23 33 45 58 6 6 30 40 53 76 23 36 45 70 49 76 21 28 107 196 138 269
10 22 23 53 30 70 8 16 11 33 9 37 -3 4 0 8 5 8 6 0 10 3 10 7 -1 5 0 10 1 13
1 3 3 13 6 22 2 10 5 24 7 30 2 7 13 45 25 83 11 39 23 84 26 100 3 17 12 69
20 117 8 47 17 133 21 190 7 125 13 164 28 192 37 65 121 88 194 53 65 -32 96
-99 94 -209 -1 -46 -3 -92 -5 -103 -2 -11 -7 -56 -11 -100 -3 -43 -8 -82 -10
-85 -2 -4 -7 -35 -10 -71 -3 -35 -8 -71 -10 -79 -2 -8 -7 -39 -10 -69 -4 -30
-9 -63 -11 -75 -2 -12 -7 -41 -9 -66 -3 -25 -8 -52 -10 -60 -2 -8 -7 -33 -10
-55 -3 -23 -7 -52 -10 -65 -3 -13 -7 -42 -10 -65 -3 -22 -8 -53 -11 -68 -3
-16 -7 -38 -9 -50 -1 -12 -6 -37 -9 -54 -3 -18 -8 -48 -11 -65 -3 -18 -8 -40
-10 -48 -4 -14 -9 -44 -21 -115 -2 -16 -9 -52 -14 -80 -5 -27 -12 -61 -14 -75
-2 -14 -14 -74 -26 -135 -12 -60 -24 -119 -26 -130 -2 -11 -7 -33 -10 -50 -4
-16 -8 -39 -10 -50 -2 -11 -8 -42 -14 -70 -16 -78 -22 -108 -25 -130 -2 -11
-4 -20 -5 -20 -1 0 -3 -7 -5 -15 -16 -67 -33 -142 -38 -170 -3 -14 -10 -43
-15 -65 -12 -42 -21 -86 -27 -120 -2 -11 -4 -20 -5 -20 -2 0 -5 -14 -13 -55
-3 -14 -17 -70 -32 -125 -15 -55 -28 -107 -30 -115 -2 -8 -4 -15 -5 -15 -1 0
-4 -8 -14 -50 -2 -11 -9 -32 -15 -47 -6 -16 -8 -28 -5 -28 4 0 2 -6 -3 -12 -8
-11 -39 -98 -48 -133 -3 -14 -23 -63 -35 -85 -10 -19 -3 -20 60 -6 14 3 36 8
50 11 14 2 36 7 50 10 58 11 87 16 125 20 22 3 49 7 60 9 26 5 109 16 160 21
22 2 72 7 110 12 91 10 429 10 525 0 41 -4 95 -10 120 -12 25 -2 65 -8 90 -11
60 -9 68 -10 120 -17 25 -4 81 -13 125 -22 44 -9 89 -18 100 -20 11 -2 33 -6
48 -10 25 -5 27 -4 18 14 -6 10 -25 59 -42 108 -17 48 -33 95 -36 103 -3 8 -7
20 -8 25 -2 6 -12 42 -23 80 -19 64 -74 273 -87 327 -15 67 -27 126 -32 153
-3 17 -9 38 -14 47 -5 10 -8 18 -5 18 2 0 -4 32 -14 70 -10 39 -16 70 -14 70
3 0 0 8 -5 18 -5 9 -12 35 -15 57 -4 22 -8 47 -11 55 -2 8 -7 31 -10 50 -2 19
-11 65 -19 101 -25 112 -27 123 -33 172 -3 26 -9 47 -13 47 -5 0 -7 8 -6 17 2
10 -1 36 -6 58 -10 39 -13 56 -21 105 -3 14 -12 63 -21 110 -8 47 -18 103 -22
125 -8 49 -12 70 -14 70 -1 0 -3 9 -5 20 -2 11 -6 40 -10 65 -4 25 -9 59 -10
75 -2 17 -4 30 -5 30 -2 0 -8 31 -15 80 -3 22 -8 51 -10 65 -3 14 -7 44 -9 67
-3 24 -7 46 -9 50 -3 5 -8 35 -12 68 -3 33 -8 71 -10 85 -2 14 -6 43 -9 65 -3
22 -8 56 -12 75 -3 19 -7 51 -9 70 -2 19 -6 49 -9 65 -3 17 -8 70 -11 120 -3
49 -8 91 -10 94 -3 2 0 10 6 18 7 8 7 13 2 13 -16 0 3 86 29 131 24 43 73 71
127 72 40 1 114 -30 105 -44 -3 -5 0 -9 6 -9 22 0 38 -68 44 -192 3 -69 8
-132 10 -140 3 -7 7 -31 10 -53 3 -22 10 -62 16 -88 6 -27 8 -53 5 -58 -4 -5
-2 -9 3 -9 6 0 12 -15 15 -33 3 -17 7 -39 9 -47 24 -85 42 -137 50 -147 6 -7
8 -13 5 -13 -6 0 9 -39 45 -120 12 -25 19 -45 17 -45 -4 0 32 -66 48 -85 6 -8
12 -18 12 -23 1 -19 123 -217 156 -253 5 -7 19 -24 30 -40 69 -95 265 -291
370 -369 22 -17 42 -32 45 -35 8 -8 139 -93 195 -127 101 -60 299 -147 395
-174 25 -7 51 -17 58 -22 7 -5 15 -7 19 -4 3 4 12 2 20 -5 7 -6 16 -8 20 -5 3
4 12 2 20 -4 7 -6 13 -9 13 -6 0 3 15 1 33 -4 102 -29 311 -52 472 -52 85 0
240 11 265 18 8 2 35 6 60 9 59 7 96 14 145 28 35 10 51 14 90 22 6 1 15 4 20
8 6 3 26 9 45 13 19 4 41 12 49 19 8 6 16 9 18 7 4 -4 46 12 113 41 57 26 83
36 94 36 5 0 12 4 15 9 3 4 24 17 46 28 22 11 66 37 98 58 32 20 61 37 64 37
5 0 103 69 113 80 3 3 21 16 40 30 19 13 48 35 63 50 56 49 232 227 255 256
64 81 117 153 139 191 14 24 29 43 34 43 5 0 8 3 7 8 -2 6 16 42 48 97 78 132
215 502 200 540 -2 7 -1 16 4 21 5 5 11 27 14 49 4 23 8 52 11 65 8 42 16 116
20 197 2 43 5 80 6 83 1 3 1 9 0 14 -1 5 -4 59 -6 120 -5 115 -8 152 -20 221
-3 22 -8 49 -10 60 -3 18 -17 89 -21 108 -1 4 -2 8 -4 10 -1 1 -3 9 -5 17 -16
78 -71 239 -113 330 -14 30 -25 58 -24 62 1 3 -5 12 -13 18 -8 7 -15 21 -15
31 0 10 -4 20 -9 23 -5 3 -18 24 -29 45 -33 63 -46 84 -64 105 -10 11 -18 23
-18 28 0 35 -290 362 -389 438 -18 14 -47 37 -64 52 -18 15 -35 28 -38 28 -3
0 -19 11 -35 25 -16 14 -49 37 -74 52 -25 14 -47 29 -50 32 -16 19 -302 160
-334 165 -6 1 -15 4 -21 7 -8 5 -107 40 -125 44 -44 11 -68 18 -80 22 -19 8
-38 12 -75 17 -16 3 -30 5 -30 6 0 1 -13 4 -30 6 -47 8 -70 12 -70 14 0 2 -29
5 -135 15 -93 8 -272 9 -365 0 -87 -7 -130 -12 -130 -15 0 -1 -11 -3 -25 -4
-14 -2 -43 -6 -65 -10 -22 -4 -42 -8 -45 -8 -3 0 -36 -9 -75 -20 -38 -11 -77
-21 -85 -23 -23 -5 -212 -76 -235 -88 -11 -6 -22 -12 -25 -12 -3 0 -15 -6 -26
-13 -12 -6 -24 -8 -28 -5 -3 3 -6 2 -6 -4 0 -5 -19 -18 -42 -29 -40 -17 -267
-158 -278 -173 -3 -3 -23 -19 -45 -36 -55 -40 -82 -65 -199 -181 -127 -127
-145 -137 -228 -121 -56 10 -103 85 -93 147 9 52 34 75 150 135 201 104 452
309 595 485 19 24 40 48 45 54 24 26 76 96 71 96 -3 0 6 12 19 26 14 15 25 33
25 40 0 7 4 14 8 16 9 4 92 146 92 158 0 4 7 13 15 20 9 7 13 15 10 18 -2 3 4
21 14 41 66 126 148 389 167 530 3 20 7 50 9 66 18 130 23 366 10 470 -3 28
-7 70 -9 95 -2 25 -6 52 -9 60 -3 8 -8 34 -11 58 -3 23 -10 51 -15 61 -6 10
-8 20 -6 22 4 5 -34 139 -59 209 -10 25 -18 50 -20 55 -5 21 -118 257 -143
300 -10 17 -21 32 -25 33 -5 2 -8 8 -8 13 0 11 -20 41 -115 169 -80 108 -236
268 -345 355 -41 33 -76 63 -78 68 -2 4 -9 7 -15 7 -6 0 -20 8 -31 19 -27 23
-204 131 -217 131 -5 0 -28 12 -50 26 -23 14 -50 27 -61 29 -11 3 -25 8 -32
13 -20 17 -281 105 -306 105 -3 0 -25 6 -50 13 -25 7 -63 16 -85 19 -22 4 -51
8 -65 11 -14 2 -41 6 -60 7 -20 2 -42 7 -49 12 -10 6 -12 4 -6 -6 7 -11 6 -12
-6 -3 -12 10 -382 18 -391 8z"/>
</g>
</svg>
